<svg width="27" height="51" viewBox="0 0 27 51" fill="none" xmlns="http://www.w3.org/2000/svg">
<path d="M25.4398 43.4006C26.9523 45.1043 25.7905 47.6697 26.264 49.6965C26.1938 49.8042 24.0368 50.0218 23.6839 50.0325C22.1428 50.0756 19.3215 50.0304 17.833 49.871C15.8777 49.6642 15.5181 49.0094 15.38 47.157C15.2529 45.4597 15.3384 43.336 17.1403 42.5067C18.1926 42.0242 19.0124 42.5476 20.1633 42.371C21.4391 42.175 21.7241 41.042 23.2016 41.3285C23.754 41.4362 24.1661 42.2633 24.5432 42.6489C24.8128 42.9246 25.26 43.1938 25.4398 43.3984V43.4006Z" fill="#9D192E"/>
<path d="M25.7664 26.9274C26.8866 27.8364 25.9659 31.8168 25.9571 33.1695C25.9528 33.7747 26.5841 36.2992 26.264 36.493C25.5648 36.5619 24.8545 36.4715 24.1552 36.5145C23.1885 36.5727 20.8867 37.0186 20.1392 36.577C19.8192 36.3896 19.6591 36.1075 19.5364 35.7714C19.1878 34.8086 18.6727 32.0408 18.5609 30.9854C18.3022 28.5752 18.4009 27.2699 20.9985 26.8843C21.8206 26.7616 25.271 26.5225 25.7686 26.9274H25.7664Z" fill="#9D192E"/>
<path d="M10.9103 28.3812C10.6604 28.6547 9.93259 29.0618 9.55335 29.1415C8.10874 29.4431 5.67108 28.7754 4.21551 28.4716C3.30577 28.2821 2.56702 28.5298 1.9883 27.5562C1.08733 26.0442 1.97734 23.1514 3.39565 22.1542C4.77889 21.1806 8.43317 21.0944 10.1014 21.2861C12.048 21.5101 11.1076 23.6555 11.112 24.7841C11.1163 25.9279 12.037 27.1491 10.9125 28.3812H10.9103Z" fill="#9D192E"/>
<path d="M14.2823 45.5222C14.1332 46.7801 12.4453 48.43 11.3185 48.8975C8.88526 49.9098 3.71621 49.6169 1.16018 49.0267C-1.10429 48.5033 0.664761 46.3407 0.548577 44.9062C3.03446 44.4517 5.55541 44.9105 8.04348 45.0505C10.1172 45.169 12.2348 45.0053 14.2801 45.5201L14.2823 45.5222Z" fill="#9D192E"/>
<path d="M0.732422 8.43147C1.90302 7.51174 3.06924 8.23115 4.25299 8.24408C6.21714 8.26346 8.87182 7.00772 10.7351 7.9253C11.9386 8.51763 11.2919 9.6786 11.2656 10.6522C11.2525 11.1734 11.5725 11.5267 11.3687 12.1362C11.0508 13.0904 8.71617 12.8126 7.88316 12.903C6.63803 13.0366 5.37098 13.3274 4.09296 13.3683C3.03635 13.4006 1.09632 13.756 0.86395 12.5089C0.662274 11.4233 0.850797 9.60536 0.732422 8.43362V8.43147Z" fill="#9D192E"/>
<path d="M0.719477 39.0192C1.19517 38.9482 1.7454 38.5217 2.19917 38.5217C2.55649 38.5217 2.95107 38.7995 3.45307 38.8512C5.42599 39.0515 7.96448 37.6472 9.78614 38.526C10.8274 39.0279 10.3408 39.4371 10.5293 40.2793C10.7244 41.1516 11.2154 41.9723 10.9304 42.9286C10.7222 43.6243 8.53882 43.4542 7.90091 43.5231C6.15816 43.7062 3.79066 44.1477 2.06326 44.0702C1.71909 44.0551 1.19517 43.8871 1.00226 43.592C0.666866 43.0794 0.8247 39.8765 0.717285 39.0214L0.719477 39.0192Z" fill="#9D192E"/>
<path d="M17.0923 0.976966C17.2743 2.63334 18.3024 4.52233 18.3901 6.14855C18.4076 6.49749 18.3747 6.32948 18.1511 6.37471C17.1362 6.57934 16.4369 6.32302 15.4614 6.37471C14.8673 6.40702 14.3018 6.6418 13.7274 6.68703C11.5331 6.86365 11.8948 6.3144 10.7132 4.99835C10.5203 4.78511 10.2288 4.68819 10.0205 4.43833C9.27958 3.5466 9.01433 2.0927 7.80865 2.03024C7.44476 1.61884 8.92445 0.712032 9.23354 0.559103C11.5879 -0.606172 13.0522 0.348018 15.3474 0.752957C15.9283 0.854192 16.564 0.6668 17.0945 0.976966H17.0923Z" fill="#9D192E"/>
<path d="M26.2836 6.22383C24.7469 5.86843 21.2789 6.79462 20.0053 6.2626C19.4923 6.0472 19.2117 5.10594 19.0276 4.58253C18.6177 3.41726 17.9184 1.57995 19.534 1.06086C21.5771 0.406063 22.1974 1.66827 23.7538 2.10767C24.4356 2.29937 25.1393 2.12059 25.7553 2.70215C25.832 2.77323 26.2814 3.45603 26.2814 3.50341V6.22167L26.2836 6.22383Z" fill="#9D192E"/>
<path d="M26.2772 10.8762C24.894 11.0636 23.6335 10.4433 22.2656 10.4109C21.369 10.3894 20.0099 10.4906 19.1001 10.5746C18.1597 10.6608 17.2894 11.4556 17.1206 10.0319C17.0702 9.60753 17.068 7.82839 17.2631 7.55699L26.1325 7.38037L26.5205 7.61946C26.8077 8.72012 26.4394 9.79493 26.275 10.8762H26.2772Z" fill="#9D192E"/>
<path d="M0.905638 6.17833C0.515438 5.7497 0.195386 4.58658 0.462826 4.05025C0.721498 3.529 1.83291 3.8047 2.35464 3.73793C3.72034 3.56562 6.12073 3.01636 7.38997 3.12622C9.08668 3.27268 9.6128 5.65708 8.42027 6.75343C7.47985 7.61931 4.96328 7.02698 3.7598 6.86544C2.91583 6.75343 1.54574 6.88267 0.905638 6.17833Z" fill="#9D192E"/>
<path d="M0.381856 34.1817C1.06799 34.3411 1.61603 33.977 2.2101 33.8844C2.55207 33.8306 2.92473 33.8995 3.28424 33.8543C4.47676 33.7035 6.34227 32.8742 6.66013 34.6081C6.82673 35.5106 6.86181 37.3006 5.67805 37.4535C4.8845 37.5569 1.94266 37.3027 1.28502 36.943C0.329245 36.4174 0.309516 35.1402 0.377472 34.1838L0.381856 34.1817Z" fill="#9D192E"/>
<path d="M17.1602 41.447C17.1163 41.4255 17.193 41.195 16.8993 41.1584C15.5073 40.9861 13.017 41.8778 12.8526 40.0082C12.7584 38.9399 13.2319 38.5414 14.1745 38.1924C15.4459 37.7207 18.0041 38.2312 19.3764 38.5694C22.2722 39.2802 17.7849 41.7594 17.1602 41.447Z" fill="#9D192E"/>
<path d="M10.1677 38.0586C9.61751 38.1835 9.34568 37.6472 8.9489 37.4856C8.46225 37.2874 7.53059 37.4167 7.36399 36.8696C7.11628 36.0489 7.41441 34.1061 7.47579 33.1885C7.49333 32.915 7.14478 32.5273 7.47579 32.2257C9.37199 31.0131 10.1042 32.65 11.4238 33.6645L10.1677 38.0586Z" fill="#9D192E"/>
<path d="M26.2332 23.8213C27.3314 25.118 24.383 25.1094 23.846 25.1848C23.5062 25.2343 23.1993 25.4433 22.8726 25.4713C21.257 25.6113 17.5392 25.7017 18.2144 23.257C18.4555 22.8887 19.887 22.977 20.3648 22.9921C21.8708 23.0352 24.0959 23.1902 25.5624 23.4724C25.7378 23.5069 26.1236 23.6921 26.231 23.8192L26.2332 23.8213Z" fill="#9D192E"/>
<path d="M17.7152 20.7067C19.0853 20.4676 23.7809 20.5215 25.2562 20.6723C25.4798 20.696 26.1528 20.7994 26.2865 20.9006C26.6526 21.172 26.4202 22.1348 25.8897 22.2253C24.0395 22.5397 22.0535 22.2037 20.2033 22.5031C19.6071 22.1671 17.0181 22.6776 16.8296 22.124C16.6762 21.2904 16.8472 20.8575 17.713 20.7067H17.7152Z" fill="#9D192E"/>
<path d="M26.0846 12.1666L26.2841 13.3663C25.2823 13.2392 24.1599 13.4891 23.2041 13.4912C21.8669 13.4955 19.574 13.5128 18.3047 13.3706C17.487 13.278 17.2919 12.9614 17.4739 12.1579C18.7541 11.2942 20.3785 11.8262 21.788 11.6647C22.2001 11.6173 22.4676 11.3954 22.8819 11.3459C24.0064 11.2081 25.0499 11.7982 26.0846 12.1666Z" fill="#9D192E"/>
<path d="M25.8087 42.5691C25.3177 42.903 24.4868 41.169 23.9958 40.8589C23.5903 40.6047 23.2001 40.637 22.8252 40.4561C22.0514 40.0856 21.42 39.2779 21.5647 38.3926C22.4131 38.0006 25.9578 37.796 26.4554 38.4379C26.9442 39.069 25.9446 41.7355 25.8087 42.5669V42.5691Z" fill="#9D192E"/>
<path d="M2.24056 29.7188C3.38485 29.4625 7.01064 30.4727 6.15352 31.8534C5.81154 32.4026 1.561 32.8507 0.859513 32.547C-0.0436462 32.1549 0.47589 30.7721 1.0875 30.2939C1.24094 30.1755 2.07396 29.7555 2.24056 29.7188Z" fill="#9D192E"/>
<path d="M0.699946 19.8925V15.7764C0.699946 15.6342 0.989308 15.212 0.85778 14.9213C3.07622 15.0613 3.08937 17.1377 2.90743 18.8802C2.72986 20.5883 2.07222 20.2264 0.697754 19.8925H0.699946Z" fill="#9D192E"/>
<path d="M25.1329 14.6411C25.4135 14.5592 25.8432 14.5463 25.9462 14.8672C25.8739 16.1747 26.6038 18.2575 26.2509 19.4723C26.0229 20.2585 24.3372 20.3511 24.2232 19.3582C24.1092 18.3652 23.9996 14.9706 25.1351 14.6411H25.1329Z" fill="#9D192E"/>
<path d="M6.22583 1.71761C5.92551 2.11609 1.62673 2.27117 0.927438 2.19363C0.690688 2.16778 0.52847 2.1764 0.383789 1.95023C0.953744 0.614797 3.16342 0.681568 4.40855 0.789265C5.07715 0.847421 6.1513 0.914193 6.22583 1.71761Z" fill="#9D192E"/>
<path d="M11.4388 29.9901C11.3555 31.3126 9.21595 31.1705 8.24045 31.0369C7.89409 30.9895 5.88171 30.4037 6.64677 29.988C8.25579 29.4732 9.82098 29.6519 11.4366 29.9901H11.4388Z" fill="#9D192E"/>
<path d="M18.2281 33.7165C18.6139 34.9054 18.8068 36.0276 18.7038 37.2898C16.5993 37.6969 17.246 32.8829 18.2281 33.7165Z" fill="#9D192E"/>
<path d="M0.705797 23.7693C0.405474 22.9013 0.629072 22.1603 0.69922 21.2901C2.49458 20.9778 2.2644 23.9136 0.705797 23.7693Z" fill="#9D192E"/>
</svg>
