<svg width="164" height="58" viewBox="0 0 164 58" fill="none" xmlns="http://www.w3.org/2000/svg">
<g clip-path="url(#clip0_106_695)">
<path d="M25.4393 51.2352C26.9518 52.9389 25.79 55.5043 26.2635 57.5311C26.1934 57.6388 24.0363 57.8564 23.6834 57.8671C22.1423 57.9102 19.321 57.865 17.8326 57.7056C15.8772 57.4988 15.5177 56.844 15.3796 54.9916C15.2524 53.2943 15.3379 51.1706 17.1398 50.3413C18.1921 49.8588 19.0119 50.3822 20.1628 50.2056C21.4386 50.0096 21.7236 48.8766 23.2011 49.1631C23.7535 49.2708 24.1656 50.0979 24.5427 50.4835C24.8123 50.7592 25.2595 51.0284 25.4393 51.233V51.2352Z" fill="#9D192E"/>
<path d="M25.7659 34.7621C26.8861 35.6711 25.9654 39.6515 25.9567 41.0042C25.9523 41.6095 26.5836 44.1339 26.2636 44.3277C25.5643 44.3966 24.854 44.3062 24.1547 44.3493C23.188 44.4074 20.8863 44.8533 20.1387 44.4117C19.8187 44.2243 19.6587 43.9422 19.5359 43.6062C19.1873 42.6434 18.6722 39.8756 18.5604 38.8201C18.3017 36.4099 18.4004 35.1046 20.998 34.719C21.8201 34.5963 25.2705 34.3572 25.7681 34.7621H25.7659Z" fill="#9D192E"/>
<path d="M10.9098 36.2159C10.6599 36.4894 9.93211 36.8965 9.55287 36.9762C8.10825 37.2778 5.6706 36.6101 4.21502 36.3064C3.30528 36.1168 2.56653 36.3645 1.98781 35.3909C1.08684 33.8789 1.97685 30.9862 3.39516 29.9889C4.7784 29.0153 8.43269 28.9292 10.1009 29.1209C12.0475 29.3449 11.1071 31.4902 11.1115 32.6188C11.1159 33.7626 12.0366 34.9839 10.912 36.2159H10.9098Z" fill="#9D192E"/>
<path d="M14.2818 53.3568C14.1327 54.6147 12.4448 56.2646 11.318 56.732C8.88478 57.7444 3.71572 57.4515 1.15969 56.8613C-1.10478 56.3379 0.664272 54.1753 0.548089 52.7408C3.03397 52.2863 5.55492 52.7451 8.043 52.8851C10.1168 53.0036 12.2344 52.8399 14.2796 53.3547L14.2818 53.3568Z" fill="#9D192E"/>
<path d="M0.731934 16.2662C1.90253 15.3465 3.06875 16.0659 4.2525 16.0788C6.21665 16.0982 8.87133 14.8424 10.7346 15.76C11.9381 16.3523 11.2914 17.5133 11.2651 18.4869C11.252 19.0081 11.572 19.3614 11.3682 19.9709C11.0503 20.9251 8.71569 20.6473 7.88268 20.7377C6.63754 20.8713 5.37049 21.1621 4.09248 21.203C3.03587 21.2353 1.09583 21.5907 0.863462 20.3436C0.661785 19.258 0.850309 17.4401 0.731934 16.2683V16.2662Z" fill="#9D192E"/>
<path d="M0.718989 46.8541C1.19468 46.783 1.74491 46.3565 2.19868 46.3565C2.556 46.3565 2.95058 46.6344 3.45258 46.6861C5.4255 46.8864 7.96399 45.482 9.78566 46.3608C10.8269 46.8627 10.3403 47.2719 10.5288 48.1141C10.7239 48.9865 11.2149 49.8071 10.93 50.7635C10.7217 51.4592 8.53833 51.289 7.90042 51.3579C6.15767 51.541 3.79017 51.9826 2.06277 51.905C1.7186 51.89 1.19468 51.722 1.00177 51.4269C0.666378 50.9142 0.824211 47.7113 0.716797 46.8562L0.718989 46.8541Z" fill="#9D192E"/>
<path d="M17.0919 8.81168C17.2738 10.4681 18.3019 12.357 18.3896 13.9833C18.4071 14.3322 18.3743 14.1642 18.1507 14.2094C17.1357 14.4141 16.4364 14.1577 15.4609 14.2094C14.8668 14.2417 14.3013 14.4765 13.7269 14.5217C11.5326 14.6984 11.8943 14.1491 10.7127 12.8331C10.5198 12.6198 10.2283 12.5229 10.02 12.273C9.27909 11.3813 9.01384 9.92742 7.80816 9.86495C7.44427 9.45355 8.92396 8.54675 9.23305 8.39382C11.5874 7.22854 13.0518 8.18274 15.3469 8.58767C15.9278 8.68891 16.5636 8.50152 17.094 8.81168H17.0919Z" fill="#9D192E"/>
<path d="M26.2831 14.0585C24.7464 13.7031 21.2784 14.6293 20.0048 14.0973C19.4918 13.8819 19.2113 12.9407 19.0271 12.4172C18.6172 11.252 17.9179 9.41467 19.5335 8.89557C21.5766 8.24078 22.1969 9.50298 23.7534 9.94238C24.4351 10.1341 25.1388 9.95531 25.7548 10.5369C25.8315 10.6079 26.2809 11.2907 26.2809 11.3381V14.0564L26.2831 14.0585Z" fill="#9D192E"/>
<path d="M26.2767 18.7109C24.8935 18.8983 23.633 18.278 22.2651 18.2457C21.3685 18.2241 20.0094 18.3254 19.0997 18.4094C18.1592 18.4955 17.2889 19.2903 17.1202 17.8666C17.0697 17.4423 17.0675 15.6631 17.2626 15.3917L26.132 15.2151L26.52 15.4542C26.8072 16.5548 26.4389 17.6296 26.2745 18.7109H26.2767Z" fill="#9D192E"/>
<path d="M0.905149 14.013C0.514949 13.5844 0.194898 12.4213 0.462338 11.885C0.72101 11.3637 1.83242 11.6394 2.35415 11.5726C3.71985 11.4003 6.12024 10.8511 7.38948 10.9609C9.08619 11.1074 9.61231 13.4918 8.41979 14.5881C7.47936 15.454 4.96279 14.8617 3.75931 14.7002C2.91534 14.5881 1.54525 14.7174 0.905149 14.013Z" fill="#9D192E"/>
<path d="M0.381368 42.0164C1.06751 42.1758 1.61554 41.8118 2.20961 41.7191C2.55158 41.6653 2.92424 41.7342 3.28375 41.689C4.47627 41.5382 6.34178 40.7089 6.65964 42.4429C6.82624 43.3454 6.86132 45.1353 5.67756 45.2882C4.88401 45.3916 1.94217 45.1374 1.28453 44.7777C0.328757 44.2522 0.309027 42.9749 0.376983 42.0185L0.381368 42.0164Z" fill="#9D192E"/>
<path d="M17.1597 49.2817C17.1158 49.2602 17.1926 49.0297 16.8988 48.9931C15.5068 48.8208 13.0165 49.7125 12.8521 47.8429C12.7579 46.7746 13.2314 46.3761 14.174 46.0272C15.4454 45.5555 18.0036 46.0659 19.3759 46.4041C22.2717 47.1149 17.7844 49.5941 17.1597 49.2817Z" fill="#9D192E"/>
<path d="M10.1672 45.8934C9.61702 46.0183 9.34519 45.482 8.94842 45.3204C8.46176 45.1223 7.53011 45.2515 7.3635 44.7044C7.11579 43.8838 7.41392 41.9409 7.4753 41.0234C7.49284 40.7498 7.14429 40.3621 7.4753 40.0606C9.3715 38.8479 10.1037 40.4849 11.4233 41.4994L10.1672 45.8934Z" fill="#9D192E"/>
<path d="M26.2327 31.6562C27.331 32.9529 24.3825 32.9442 23.8455 33.0196C23.5057 33.0692 23.1988 33.2781 22.8722 33.3061C21.2566 33.4461 17.5387 33.5366 18.2139 31.0919C18.455 30.7235 19.8865 30.8118 20.3644 30.8269C21.8704 30.87 24.0954 31.0251 25.5619 31.3073C25.7373 31.3417 26.1231 31.527 26.2305 31.654L26.2327 31.6562Z" fill="#9D192E"/>
<path d="M17.7148 28.5414C19.0848 28.3024 23.7804 28.3562 25.2557 28.507C25.4793 28.5307 26.1523 28.6341 26.286 28.7353C26.6521 29.0067 26.4197 29.9695 25.8892 30.06C24.0391 30.3744 22.053 30.0384 20.2028 30.3378C19.6066 30.0018 17.0177 30.5123 16.8291 29.9587C16.6757 29.1252 16.8467 28.6922 17.7126 28.5414H17.7148Z" fill="#9D192E"/>
<path d="M26.0841 20.0013L26.2836 21.201C25.2818 21.0739 24.1594 21.3238 23.2036 21.3259C21.8664 21.3302 19.5735 21.3475 18.3042 21.2053C17.4866 21.1127 17.2915 20.7961 17.4734 19.9927C18.7536 19.1289 20.378 19.661 21.7875 19.4994C22.1996 19.452 22.4671 19.2302 22.8814 19.1806C24.006 19.0428 25.0494 19.6329 26.0841 20.0013Z" fill="#9D192E"/>
<path d="M25.8082 50.4039C25.3172 50.7378 24.4863 49.0039 23.9953 48.6937C23.5898 48.4395 23.1996 48.4719 22.8247 48.2909C22.0509 47.9205 21.4196 47.1127 21.5642 46.2275C22.4126 45.8354 25.9573 45.6308 26.4549 46.2727C26.9437 46.9038 25.9441 49.5704 25.8082 50.4018V50.4039Z" fill="#9D192E"/>
<path d="M2.24007 37.5536C3.38436 37.2972 7.01015 38.3074 6.15303 39.6881C5.81106 40.2374 1.56051 40.6854 0.859025 40.3817C-0.0441344 39.9897 0.475401 38.6068 1.08701 38.1287C1.24046 38.0102 2.07347 37.5902 2.24007 37.5536Z" fill="#9D192E"/>
<path d="M0.699458 27.7274V23.6112C0.699458 23.4691 0.988819 23.0469 0.857291 22.7561C3.07573 22.8961 3.08888 24.9725 2.90694 26.715C2.72937 28.4231 2.07173 28.0612 0.697266 27.7274H0.699458Z" fill="#9D192E"/>
<path d="M25.1324 22.4758C25.413 22.3939 25.8427 22.381 25.9457 22.7019C25.8734 24.0094 26.6034 26.0922 26.2504 27.307C26.0224 28.0932 24.3367 28.1858 24.2227 27.1929C24.1087 26.1999 23.9991 22.8053 25.1346 22.4758H25.1324Z" fill="#9D192E"/>
<path d="M6.22534 9.55233C5.92502 9.9508 1.62624 10.1059 0.92695 10.0283C0.6902 10.0025 0.527982 10.0111 0.383301 9.78495C0.953256 8.44951 3.16293 8.51629 4.40806 8.62398C5.07666 8.68214 6.15081 8.74891 6.22534 9.55233Z" fill="#9D192E"/>
<path d="M11.4383 37.8249C11.355 39.1475 9.21546 39.0053 8.23996 38.8718C7.8936 38.8244 5.88122 38.2385 6.64628 37.8228C8.2553 37.308 9.82049 37.4868 11.4361 37.8249H11.4383Z" fill="#9D192E"/>
<path d="M18.2271 41.551C18.6129 42.74 18.8058 43.8622 18.7028 45.1244C16.5984 45.5315 17.245 40.7175 18.2271 41.551Z" fill="#9D192E"/>
<path d="M0.705308 31.604C0.404986 30.736 0.628584 29.995 0.698732 29.1248C2.49409 28.8125 2.26392 31.7483 0.705308 31.604Z" fill="#9D192E"/>
<path d="M32.3538 57.5228C36.155 57.4883 41.0938 57.5228 44.998 57.5228C49.288 57.3785 55.1608 56.8895 57.6817 52.9371C59.9002 49.4606 59.4617 44.1426 56.053 41.5514C55.0358 40.7781 53.8323 40.5477 52.8152 39.9187C55.0073 39.1304 57.4713 37.1552 57.8264 34.7536C58.7909 28.2272 54.7092 25.3323 48.626 24.7766H30.0718L39.5462 34.4047V30.3661H47.8368C48.0539 30.3661 49.0272 30.8141 49.288 30.9584C51.4297 32.1517 51.2127 35.5807 49.2595 36.8925C48.3432 37.5085 47.3502 37.4051 46.4098 37.8165L46.3352 43.1044C48.2972 43.1259 49.9062 43.6386 50.8072 44.8038C51.798 46.0876 51.6292 47.5479 51.5679 47.9335C51.5635 47.968 51.5569 48.0024 51.5569 48.0024C51.5569 48.0024 51.3618 49.0945 50.5748 50.0314C49.5007 51.3087 47.7491 51.6103 47.5234 51.6469H39.5484V37.5128H32.2836L32.3516 57.5228H32.3538Z" fill="#F5F5F5"/>
<path d="M61.1865 37.5127H82.8229V44.0369H69.0826C69.133 44.1899 68.9247 44.373 68.9247 44.4247V50.4815L69.1615 50.7141H84.8747V57.3159L84.6379 57.5485H61.1733" fill="#F5F5F5"/>
<path d="M151.209 24.7766L151.446 50.5613H164L157.13 57.5508H143.311V24.7766H151.209Z" fill="#F5F5F5"/>
<path d="M137.311 37.5127V44.0369C137.311 44.0369 126.256 44.1856 126.256 44.192V50.7163H139.128V57.5507H118.912L118.675 37.5149H137.311V37.5127Z" fill="#F5F5F5"/>
<path d="M116.146 24.7766H87.0869V31.4559H116.146V24.7766Z" fill="#F5F5F5"/>
<path d="M97.6201 57.5227L97.9051 37.5127H105.567V49.551" fill="#F5F5F5"/>
<path d="M139.047 24.7766L133.282 31.4559H118.673V24.7766H139.047Z" fill="#F5F5F5"/>
<path d="M79.3484 24.7766L73.5831 31.4559H61.4233L61.5461 24.7766H79.3484Z" fill="#F5F5F5"/>
<path d="M32.4854 9.62329H34.3487V19.484H32.4854V9.62329Z" fill="#F5F5F5"/>
<path d="M43.9149 14.4419H45.6774V18.3729C44.6317 19.2043 43.1674 19.6265 41.7491 19.6265C38.6384 19.6265 36.3433 17.4984 36.3433 14.5539C36.3433 11.6095 38.6384 9.48145 41.7776 9.48145C43.4545 9.48145 44.8597 10.0307 45.8067 11.0883L44.6317 12.2148C43.8426 11.4394 42.9394 11.0883 41.8652 11.0883C39.7279 11.0883 38.2241 12.512 38.2241 14.5539C38.2241 16.5959 39.7301 18.0196 41.8521 18.0196C42.5689 18.0196 43.2726 17.8796 43.9171 17.5134V14.4419H43.9149Z" fill="#F5F5F5"/>
<path d="M54.6983 19.484L52.6486 16.5956C52.5193 16.6106 52.3899 16.6106 52.2606 16.6106H49.9961V19.484H48.1328V9.62329H52.2628C54.9021 9.62329 56.5353 10.948 56.5353 13.132C56.5353 14.6247 55.7614 15.7254 54.3979 16.2466L56.7062 19.4861H54.6983V19.484ZM52.1751 11.172H49.9961V15.1029H52.1751C53.8104 15.1029 54.6566 14.3706 54.6566 13.1299C54.6566 11.8892 53.8104 11.172 52.1751 11.172Z" fill="#F5F5F5"/>
<path d="M66.143 17.9482V19.484H58.6152V9.62329H65.9413V11.159H60.4785V13.7244H65.3254V15.2321H60.4785V17.9504H66.143V17.9482Z" fill="#F5F5F5"/>
<path d="M66.6892 18.2024L67.7502 16.9488C68.296 17.6811 68.9537 18.0753 69.7428 18.0753C70.7753 18.0753 71.3058 17.4701 71.3058 16.2574V11.159H67.7349V9.62329H73.1692V16.1605C73.1692 18.4846 71.9942 19.6261 69.7845 19.6261C68.5218 19.6261 67.3753 19.1178 66.687 18.2024H66.6892Z" fill="#F5F5F5"/>
<path d="M82.0754 17.2035H77.0576L76.069 19.4867H74.1465L78.6623 9.62598H80.4971L85.0282 19.4867H83.0772L82.0732 17.2035H82.0754ZM81.4573 15.7668L79.5654 11.4547L77.6868 15.7668H81.4573Z" fill="#F5F5F5"/>
<path d="M99.1832 16.8088C99.1832 18.4996 97.8351 19.4861 95.2549 19.4861H90.2656V9.62329H94.9678C97.3769 9.62329 98.6681 10.6227 98.6681 12.1865C98.6681 13.201 98.1507 13.9484 97.3769 14.3555C98.4532 14.6936 99.1832 15.5251 99.1832 16.8066V16.8088ZM92.1289 11.06V13.7782H94.7683C96.0594 13.7782 96.7894 13.328 96.7894 12.4256C96.7894 11.5231 96.0572 11.06 94.7683 11.06H92.1289ZM97.3046 16.6257C97.3046 15.6392 96.5439 15.202 95.1387 15.202H92.1268V18.0473H95.1387C96.5439 18.0473 97.3046 17.6101 97.3046 16.6236V16.6257Z" fill="#F5F5F5"/>
<path d="M107.689 17.2035H102.671L101.683 19.4867H99.7622L104.278 9.62598H106.113L110.644 19.4867H108.693L107.689 17.2035ZM107.071 15.7668L105.179 11.4547L103.3 15.7668H107.071Z" fill="#F5F5F5"/>
<path d="M113.454 11.172H110.128V9.62329H118.645V11.172H115.319V19.484H113.456V11.172H113.454Z" fill="#F5F5F5"/>
<path d="M120.05 9.62329H121.914V19.484H120.05V9.62329Z" fill="#F5F5F5"/>
<path d="M123.779 18.4418L124.423 17.018C125.226 17.6513 126.501 18.1036 127.736 18.1036C129.299 18.1036 129.958 17.5544 129.958 16.822C129.958 14.694 123.994 16.0897 123.994 12.4259C123.994 10.8341 125.285 9.48145 128.038 9.48145C129.242 9.48145 130.504 9.79161 131.379 10.3538L130.791 11.7775C129.888 11.2563 128.9 11.0021 128.025 11.0021C126.477 11.0021 125.846 11.5944 125.846 12.3397C125.846 14.4398 131.795 13.072 131.795 16.6928C131.795 18.2716 130.491 19.6221 127.738 19.6221C126.175 19.6221 124.612 19.144 123.781 18.4375L123.779 18.4418Z" fill="#F5F5F5"/>
<path d="M135.537 11.172H132.209V9.62329H140.726V11.172H137.4V19.484H135.537V11.172Z" fill="#F5F5F5"/>
<path d="M148.143 17.2035H143.125L142.136 19.4867H140.216L144.732 9.62598H146.566L151.098 19.4867H149.147L148.143 17.2035ZM147.527 15.7668L145.635 11.4547L143.756 15.7668H147.527Z" fill="#F5F5F5"/>
</g>
<defs>
<clipPath id="clip0_106_695">
<rect width="164" height="57.8824" fill="white"/>
</clipPath>
</defs>
</svg>
