<svg width="167" height="132" viewBox="0 0 167 132" fill="none" xmlns="http://www.w3.org/2000/svg">
<path d="M0 0V12.2866C0 46.2795 18.0019 76.013 44.801 92.5589V131.057H166.986V114.675C166.986 92.8866 123.569 81.9106 101.821 81.9106H99.7841C61.0923 81.9106 28.5098 49.1463 28.5098 12.2866V0M101.821 0C93.1791 0 84.8916 3.45193 78.7812 9.59642C72.6708 15.7409 69.238 24.0746 69.238 32.7642C69.238 41.4538 72.6708 49.7875 78.7812 55.932C84.8916 62.0765 93.1791 65.5285 101.821 65.5285C110.462 65.5285 118.75 62.0765 124.86 55.932C130.97 49.7875 134.403 41.4538 134.403 32.7642C134.403 24.0746 130.97 15.7409 124.86 9.59642C118.75 3.45193 110.462 0 101.821 0Z" fill="#C5A059"/>
</svg>
